# File generated by ImageToStl.com - Free Image and 3D model conversion tools

mtllib Outer_Wall.mtl

# Outer_Wall_0
o obj1
v -2083.0256924 1460.48576068 -485.91961344
v -2083.0256924 1877.3856325 -485.91968137
v -2137.79902309 1877.38570023 -70.20470219
v -2137.79902309 1460.48582841 -70.20463427
v -1129.32486385 1460.4855439 -1816.51877841
v -1129.32486385 1877.38541572 -1816.51884633
v -1462.01033443 1877.3854573 -1561.29442769
v -1462.01033443 1460.48558548 -1561.29435977
v 1738.51151615 1460.48604285 1246.0699133
v 1738.51151615 1877.38591468 1246.06984538
v 1948.20275456 1877.38585552 882.96025676
v 1948.20275456 1460.4859837 882.96032468
v 882.96055943 1460.48552244 -1948.20289096
v 882.96055943 1877.38539427 -1948.20295888
v 485.91923863 1877.3853723 -2083.02618581
v 485.91923863 1460.48550048 -2083.02611788
v 2083.02579075 1460.48591901 485.91900388
v 2083.02579075 1877.38579084 485.91893596
v 2137.79912144 1877.38572311 70.20393295
v 2137.79912144 1460.48585128 70.20400087
v -1738.51160854 1877.38550866 -1246.07063847
v -1738.51160854 1460.48563683 -1246.07057055
v 70.20425946 1877.38536338 -2137.79951649
v 70.20425946 1460.48549155 -2137.79944857
v -2110.41788906 1460.48589657 348.2082657
v -2110.41788906 1877.3857684 348.20819778
v -2001.93476528 1877.38583439 753.23956889
v -2001.93476528 1460.48596256 753.23963682
v -882.96065181 1460.48615725 1948.20232908
v -882.96065181 1877.38602907 1948.20226115
v -485.91933101 1877.38605104 2083.02529735
v -485.91933101 1460.48617921 2083.02536527
v -1816.51835293 1877.38589566 1129.3244688
v -1816.51835293 1460.48602383 1129.32453672
v -70.20435184 1877.38605996 2137.79862804
v -70.20435184 1460.48618814 2137.79869596
v -1948.20265621 1460.48569599 -882.96088656
v -1948.20265621 1877.38556782 -882.96095448
v -753.24001163 1460.48551369 -2001.93519076
v -753.24001163 1877.38538551 -2001.93525868
v -348.20856899 1460.48549601 -2110.41831454
v -348.20856899 1877.38536784 -2110.41838246
v 1129.32477146 1460.48613579 1816.51802579
v 1129.32477146 1877.38600762 1816.51795787
v 1462.01024204 1877.38596604 1561.2936346
v 1462.01024204 1460.48609421 1561.29370252
v 2110.41798741 1460.48578311 -348.20885142
v 2110.41798741 1877.38565494 -348.20891934
v 2001.93486363 1877.38558895 -753.24036198
v 2001.93486363 1460.48571713 -753.24029406
v -1246.07024044 1460.48612308 1738.51128141
v -1246.07024044 1877.38599491 1738.51121349
v 1816.51845127 1877.38552768 -1129.32516652
v 1816.51845127 1460.48565585 -1129.3250986
v 1561.29403263 1460.48560165 -1462.01056918
v 1561.29403263 1877.38547348 -1462.0106371
v 1246.07014805 1877.38542843 -1738.51191121
v 1246.07014805 1460.4855566 -1738.51184329
v -1561.29393429 1877.38594986 1462.00993938
v -1561.29393429 1460.48607804 1462.0100073
v 348.20852429 1877.3860555 2110.417494
v 348.20852429 1460.48618367 2110.41756193
v 753.23991925 1460.486166 2001.93443815
v 753.23991925 1877.38603783 2001.93437022
v 401.82123333 1910.88691528 2096.0582051
v 401.82123333 1460.48618134 2096.05827848
v 699.62716252 1460.48616834 2016.29391233
v 699.62716252 1910.88690229 2016.29383895
v 600.35848767 2073.29592609 2042.88187096
v 600.35848767 1950.13441944 2042.88189103
v 501.08990818 1950.13442377 2069.4699495
v 501.08990818 2073.29593042 2069.46992943
v 753.23991925 2205.09828758 2001.93431683
v 1129.32477146 2205.09825737 1816.51790448
v 1816.51845127 2205.09777744 -1129.32521991
v 1561.29403263 2205.09772323 -1462.01069049
v 1948.20275456 2205.09810528 882.96020337
v 2083.02579075 2205.09804059 485.91888257
v -1561.29393429 2205.09819962 1462.00988599
v -1246.07024044 2205.09824467 1738.5111601
v -70.20435184 2205.09830972 2137.79857465
v 348.20852429 2205.09830526 2110.41744061
v 1246.07014805 2205.09767819 -1738.5119646
v 882.96055943 2205.09764402 -1948.20301227
v -1816.51835293 2205.09814542 1129.32441541
v 1462.01024204 2205.09821579 1561.29358121
v 1738.51151615 2205.09816444 1246.06979199
v 2137.79912144 2205.09797286 70.20387955
v 2110.41798741 2205.0979047 -348.20897273
v 70.20425946 2205.09761313 -2137.79956989
v -348.20856899 2205.0976176 -2110.41843585
v -1738.51160854 2205.09775842 -1246.07069186
v -1948.20265621 2205.09781757 -882.96100787
v 2001.93486363 2205.09783871 -753.24041537
v -882.96065181 2205.09827883 1948.20220776
v -753.24001163 2205.09763527 -2001.93531207
v -1129.32486385 2205.09766548 -1816.51889972
v -2083.0256924 2205.09788226 -485.91973476
v -485.91933101 2205.09830079 2083.02524396
v -2001.93476528 2205.09808414 753.2395155
v -2137.79902309 2205.09794999 -70.20475558
v -2110.41788906 2205.09801816 348.20814439
v 485.91923863 2205.09762206 -2083.0262392
v -1462.01033443 2205.09770706 -1561.29448108
v 753.23991925 7576.32402611 2001.93344175
v 1129.32477146 7576.3239959 1816.5170294
v 1816.51845127 7576.32351596 -1129.32609499
v 1561.29403263 7576.32346176 -1462.01156557
v 1948.20275456 7576.3238438 882.95932829
v 2083.02579075 7576.32377912 485.91800748
v -1561.29393429 7576.32393814 1462.0090109
v -1246.07024044 7576.32398319 1738.51028501
v -70.20435184 7576.32404824 2137.79769956
v 348.20852429 7576.32404378 2110.41656553
v 1246.07014805 7576.32341671 -1738.51283968
v 882.96055943 7576.32338255 -1948.20388735
v -1816.51835293 7576.32388394 1129.32354032
v 1462.01024204 7576.32395432 1561.29270612
v 1738.51151615 7576.32390296 1246.06891691
v 2137.79912144 7576.32371139 70.20300447
v 2110.41798741 7576.32364322 -348.20984782
v 70.20425946 7576.32335166 -2137.80044497
v -348.20856899 7576.32335612 -2110.41931094
v -1738.51160854 7576.32349694 -1246.07156695
v -1948.20265621 7576.3235561 -882.96188296
v 2001.93486363 7576.32357723 -753.24129046
v -882.96065181 7576.32401735 1948.20133268
v -753.24001163 7576.32337379 -2001.93618716
v -1129.32486385 7576.323404 -1816.5197748
v -2083.0256924 7576.32362078 -485.92060984
v -485.91933101 7576.32403932 2083.02436887
v -2001.93476528 7576.32382267 753.23864042
v -2137.79902309 7576.32368851 -70.20563067
v -2110.41788906 7576.32375668 348.2072693
v 485.91923863 7576.32336058 -2083.02711428
v -1462.01033443 7576.32344558 -1561.29535616
vn 0.97385 -0.22718 0
vn 0.97385 -0.22718 0
vn 0.99946 -0.03282 0
vn 0.99946 -0.03282 0
vn 0.52798 -0.84926 0
vn 0.52798 -0.84926 0
vn 0.68352 -0.72993 0
vn 0.68352 -0.72993 0
vn -0.81279 0.58256 0
vn -0.81279 0.58256 0
vn -0.91082 0.4128 0
vn -0.91082 0.4128 0
vn -0.4128 -0.91082 0
vn -0.4128 -0.91082 0
vn -0.22718 -0.97385 0
vn -0.22718 -0.97385 0
vn -0.97385 0.22718 0
vn -0.97385 0.22718 0
vn -0.99946 0.03282 0
vn -0.99946 0.03282 0
vn 0.81279 -0.58256 0
vn 0.81279 -0.58256 0
vn -0.03282 -0.99946 0
vn -0.03282 -0.99946 0
vn 0.98666 0.16279 0
vn 0.98666 0.16279 0
vn 0.93594 0.35215 0
vn 0.93594 0.35215 0
vn 0.4128 0.91082 0
vn 0.4128 0.91082 0
vn 0.22718 0.97385 0
vn 0.22718 0.97385 0
vn 0.84926 0.52798 0
vn 0.84926 0.52798 0
vn 0.03282 0.99946 0
vn 0.03282 0.99946 0
vn 0.91082 -0.4128 0
vn 0.91082 -0.4128 0
vn 0.35215 -0.93594 0
vn 0.35215 -0.93594 0
vn 0.16279 -0.98666 0
vn 0.16279 -0.98666 0
vn -0.52798 0.84926 0
vn -0.52798 0.84926 0
vn -0.68352 0.72993 0
vn -0.68352 0.72993 0
vn -0.98666 -0.16279 0
vn -0.98666 -0.16279 0
vn -0.93594 -0.35215 0
vn -0.93594 -0.35215 0
vn 0.58256 0.81279 0
vn 0.58256 0.81279 0
vn -0.84926 -0.52798 0
vn -0.72993 -0.68352 0
vn -0.72993 -0.68352 0
vn -0.58256 -0.81279 0
vn -0.58256 -0.81279 0
vn 0.72993 0.68352 0
vn 0.72993 0.68352 0
vn -0.16279 0.98666 -0
vn -0.16279 0.98666 0
vn -0.35215 0.93594 0
vn -0.35215 0.93594 0
vn -0.25872 0.96595 -0
vn -0.25871 0.96595 0
vn -0.25872 0.96595 0
vn -0.25872 0.96595 0
vn -0.25872 0.96595 0
vn -0.25872 0.96595 0
vn -0.25872 0.96595 -0
vn -0.25872 0.96595 -0
vn -0.35215 0.93594 0
vn -0.52798 0.84926 0
vn -0.72993 -0.68352 0
vn -0.91082 0.4128 0
vn -0.97385 0.22718 0
vn 0.72993 0.68352 0
vn -0.1628 0.98666 -0
vn -0.58256 -0.81279 0
vn -0.4128 -0.91082 0
vn 0.84926 0.52798 0
vn -0.68352 0.72993 0
vn -0.81279 0.58256 0
vn -0.99946 0.03282 0
vn -0.98666 -0.16279 0
vn 0.16279 -0.98666 0
vn -0.93594 -0.35215 0
vn 0.4128 0.91082 0
vn 0.35215 -0.93594 0
vn 0.52798 -0.84926 0
vn 0.97385 -0.22718 0
vn 0.22718 0.97385 0
vn 0.93594 0.35215 0
vn 0.98666 0.16279 0
vn -0.22718 -0.97385 0
vn 0.68352 -0.72993 0
vn -0.35215 0.93594 0
vn -0.52798 0.84926 0
vn -0.84926 -0.52798 0
vn -0.97385 0.22718 0
vn 0.72993 0.68352 0
vn 0.58256 0.81279 0
vn 0.03282 0.99946 0
vn -0.16279 0.98666 0
vn -0.58256 -0.81279 0
vn -0.4128 -0.91082 0
vn -0.68352 0.72993 0
vn -0.81279 0.58256 0
vn -0.99946 0.03282 0
vn -0.98666 -0.16279 0
vn 0.4128 0.91082 0
vn 0.97385 -0.22718 0
vn 0.22718 0.97385 0
vn 0.93594 0.35215 0
vn 0.98666 0.16279 0
vn -0.22718 -0.97385 0
vn 0.68352 -0.72993 0
usemtl mat0
f 1//1 2//2 3//3
f 3//3 4//4 1//1
f 5//5 6//6 7//7
f 7//7 8//8 5//5
f 9//9 10//10 11//11
f 11//11 12//12 9//9
f 13//13 14//14 15//15
f 15//15 16//16 13//13
f 17//17 18//18 19//19
f 19//19 20//20 17//17
f 8//8 7//7 21//21
f 21//21 22//22 8//8
f 16//16 15//15 23//23
f 23//23 24//24 16//16
f 25//25 26//26 27//27
f 27//27 28//28 25//25
f 29//29 30//30 31//31
f 31//31 32//32 29//29
f 4//4 3//3 26//26
f 26//26 25//25 4//4
f 28//28 27//27 33//33
f 33//33 34//34 28//28
f 32//32 31//31 35//35
f 35//35 36//36 32//32
f 37//37 38//38 2//2
f 2//2 1//1 37//37
f 39//39 40//40 6//6
f 6//6 5//5 39//39
f 41//41 42//42 40//40
f 40//40 39//39 41//41
f 43//43 44//44 45//45
f 45//45 46//46 43//43
f 47//47 48//48 49//49
f 49//49 50//50 47//47
f 51//51 52//52 30//30
f 30//30 29//29 51//51
f 50//50 49//49 53//53
f 53//53 54//53 50//50
f 22//22 21//21 38//38
f 38//38 37//37 22//22
f 24//24 23//23 42//42
f 42//42 41//41 24//24
f 55//54 56//55 57//56
f 57//56 58//57 55//54
f 20//20 19//19 48//48
f 48//48 47//47 20//20
f 46//46 45//45 10//10
f 10//10 9//9 46//46
f 34//34 33//33 59//58
f 59//58 60//59 34//34
f 58//57 57//56 14//14
f 14//14 13//13 58//57
f 36//36 35//35 61//60
f 61//60 62//61 36//36
f 60//59 59//58 52//52
f 52//52 51//51 60//59
f 12//12 11//11 18//18
f 18//18 17//17 12//12
f 54//53 53//53 56//55
f 56//55 55//54 54//53
f 63//62 64//63 44//44
f 44//44 43//43 63//62
f 62//61 61//60 65//64
f 65//64 66//65 62//61
f 67//66 68//67 64//63
f 64//63 63//62 67//66
f 69//68 70//69 71//70
f 71//70 72//71 69//68
f 64//63 73//72 74//73
f 74//73 44//44 64//63
f 53//53 75//53 76//74
f 76//74 56//55 53//53
f 11//11 77//75 78//76
f 78//76 18//18 11//11
f 59//58 79//77 80//52
f 80//52 52//52 59//58
f 35//35 81//36 82//78
f 82//78 61//60 35//35
f 57//56 83//79 84//80
f 84//80 14//14 57//56
f 33//33 85//81 79//77
f 79//77 59//58 33//33
f 45//45 86//82 87//83
f 87//83 10//10 45//45
f 19//19 88//84 89//85
f 89//85 48//48 19//19
f 56//55 76//74 83//79
f 83//79 57//56 56//55
f 23//23 90//23 91//86
f 91//86 42//42 23//23
f 21//21 92//21 93//38
f 93//38 38//38 21//21
f 49//49 94//87 75//53
f 75//53 53//53 49//49
f 52//52 80//52 95//88
f 95//88 30//30 52//52
f 48//48 89//85 94//87
f 94//87 49//49 48//48
f 44//44 74//73 86//82
f 86//82 45//45 44//44
f 42//42 91//86 96//89
f 96//89 40//40 42//42
f 40//40 96//89 97//90
f 97//90 6//6 40//40
f 38//38 93//38 98//91
f 98//91 2//2 38//38
f 31//31 99//92 81//36
f 81//36 35//35 31//31
f 27//27 100//93 85//81
f 85//81 33//33 27//27
f 3//3 101//3 102//94
f 102//94 26//26 3//3
f 30//30 95//88 99//92
f 99//92 31//31 30//30
f 26//26 102//94 100//93
f 100//93 27//27 26//26
f 15//15 103//95 90//23
f 90//23 23//23 15//15
f 7//7 104//96 92//21
f 92//21 21//21 7//7
f 18//18 78//76 88//84
f 88//84 19//19 18//18
f 14//14 84//80 103//95
f 103//95 15//15 14//14
f 10//10 87//83 77//75
f 77//75 11//11 10//10
f 6//6 97//90 104//96
f 104//96 7//7 6//6
f 61//60 82//78 72//71
f 72//71 71//70 65//64
f 65//64 61//60 72//71
f 68//67 70//69 69//68
f 69//68 73//72 64//63
f 64//63 68//67 69//68
f 73//72 105//97 106//98
f 106//98 74//73 73//72
f 75//53 107//99 108//74
f 108//74 76//74 75//53
f 77//75 109//75 110//100
f 110//100 78//76 77//75
f 79//77 111//101 112//102
f 112//102 80//52 79//77
f 81//36 113//103 114//104
f 114//104 82//78 81//36
f 83//79 115//105 116//106
f 116//106 84//80 83//79
f 85//81 117//81 111//101
f 111//101 79//77 85//81
f 86//82 118//107 119//108
f 119//108 87//83 86//82
f 88//84 120//109 121//110
f 121//110 89//85 88//84
f 76//74 108//74 115//105
f 115//105 83//79 76//74
f 90//23 122//24 123//41
f 123//41 91//86 90//23
f 92//21 124//22 125//37
f 125//37 93//38 92//21
f 94//87 126//49 107//99
f 107//99 75//53 94//87
f 80//52 112//102 127//111
f 127//111 95//88 80//52
f 89//85 121//110 126//49
f 126//49 94//87 89//85
f 74//73 106//98 118//107
f 118//107 86//82 74//73
f 91//86 123//41 128//40
f 128//40 96//89 91//86
f 96//89 128//40 129//6
f 129//6 97//90 96//89
f 93//38 125//37 130//112
f 130//112 98//91 93//38
f 99//92 131//113 113//103
f 113//103 81//36 99//92
f 100//93 132//114 117//81
f 117//81 85//81 100//93
f 101//3 133//4 134//115
f 134//115 102//94 101//3
f 95//88 127//111 131//113
f 131//113 99//92 95//88
f 102//94 134//115 132//114
f 132//114 100//93 102//94
f 103//95 135//116 122//24
f 122//24 90//23 103//95
f 104//96 136//117 124//22
f 124//22 92//21 104//96
f 78//76 110//100 120//109
f 120//109 88//84 78//76
f 84//80 116//106 135//116
f 135//116 103//95 84//80
f 87//83 119//108 109//75
f 109//75 77//75 87//83
f 97//90 129//6 136//117
f 136//117 104//96 97//90
f 98//91 130//112 133//4
f 133//4 101//3 98//91
f 73//72 82//78 114//104
f 114//104 105//97 73//72
f 72//71 82//78 73//72
f 73//72 69//68 72//71
f 2//2 98//91 101//3
f 101//3 3//3 2//2
# Vertices: 136, normals: 117, texture coordinates: 0, faces: 202

